REM DIRINDEX 1\2\6,1\2\7,1\2\8,1\2\9,1\3\10,1\3\11,1\4\12,1\4\13,1\4\14,1\5\15,1\5\16,1\5\17
REM DIRNAME folder01,folder02,folder03,folder04,folder05,folder06,folder07,folder08,folder09,folder10,folder11,folder12,folder13,folder14,folder15,folder16,folder17
TITLE ""
FILE "1900_3_091 sec16_1501_1518.mp3" MP3
  TRACK 01 AUDIO
    TITLE "0:"
    INDEX 01 00:00:00
  TRACK 02 AUDIO
    TITLE "15:cjc020_8983"
    INDEX 01 00:00:21
  TRACK 03 AUDIO
    TITLE "0:"
    INDEX 01 00:04:64
  TRACK 04 AUDIO
    TITLE "15:cjc020_8984"
    INDEX 01 00:05:34
  TRACK 05 AUDIO
    TITLE "0:"
    INDEX 01 00:07:37
  TRACK 06 AUDIO
    TITLE "17:cjc020_8985"
    INDEX 01 00:08:42
  TRACK 07 AUDIO
    TITLE "0:"
    INDEX 01 00:09:73
  TRACK 08 AUDIO
    TITLE "16:cjc020_8986"
    INDEX 01 00:10:02
  TRACK 09 AUDIO
    TITLE "0:"
    INDEX 01 00:11:19
  TRACK 10 AUDIO
    TITLE "17:cjc020_8987"
    INDEX 01 00:12:03
  TRACK 11 AUDIO
    TITLE "0:"
    INDEX 01 00:14:19
  TRACK 12 AUDIO
    TITLE "16:cjc020_8988"
    INDEX 01 00:14:29
  TRACK 13 AUDIO
    TITLE "0:"
    INDEX 01 00:15:34
  TRACK 14 AUDIO
    TITLE "17:cjc020_8989"
    INDEX 01 00:16:22
  TRACK 15 AUDIO
    TITLE "0:"
    INDEX 01 00:17:16
  TRACK 16 AUDIO
    TITLE "16:cjc020_8990"
    INDEX 01 00:17:23
  TRACK 17 AUDIO
    TITLE "0:"
    INDEX 01 00:18:29
  TRACK 18 AUDIO
    TITLE "17:cjc020_8991"
    INDEX 01 00:19:15
  TRACK 19 AUDIO
    TITLE "0:"
    INDEX 01 00:20:34
  TRACK 20 AUDIO
    TITLE "16:cjc020_8992"
    INDEX 01 00:20:39
  TRACK 21 AUDIO
    TITLE "0:"
    INDEX 01 00:21:41
  TRACK 22 AUDIO
    TITLE "17:cjc020_8993"
    INDEX 01 00:22:25
  TRACK 23 AUDIO
    TITLE "0:"
    INDEX 01 00:23:28
  TRACK 24 AUDIO
    TITLE "16:cjc020_8994"
    INDEX 01 00:23:36
  TRACK 25 AUDIO
    TITLE "0:"
    INDEX 01 00:24:49
  TRACK 26 AUDIO
    TITLE "17:cjc020_8995"
    INDEX 01 00:25:31
  TRACK 27 AUDIO
    TITLE "0:"
    INDEX 01 00:27:10
  TRACK 28 AUDIO
    TITLE "16:cjc020_8996"
    INDEX 01 00:27:16
  TRACK 29 AUDIO
    TITLE "0:"
    INDEX 01 00:28:31
  TRACK 30 AUDIO
    TITLE "17:cjc020_8997"
    INDEX 01 00:29:15
  TRACK 31 AUDIO
    TITLE "0:"
    INDEX 01 00:30:26
  TRACK 32 AUDIO
    TITLE "16:cjc020_8998"
    INDEX 01 00:30:30
  TRACK 33 AUDIO
    TITLE "0:"
    INDEX 01 00:31:33
  TRACK 34 AUDIO
    TITLE "17:cjc020_8999"
    INDEX 01 00:32:19
  TRACK 35 AUDIO
    TITLE "0:"
    INDEX 01 00:33:32
  TRACK 36 AUDIO
    TITLE "16:cjc020_9000"
    INDEX 01 00:33:36
  TRACK 37 AUDIO
    TITLE "0:"
    INDEX 01 00:34:43
  TRACK 38 AUDIO
    TITLE "17:cjc020_9001"
    INDEX 01 00:35:27
  TRACK 39 AUDIO
    TITLE "0:"
    INDEX 01 00:36:58
  TRACK 40 AUDIO
    TITLE "16:cjc020_9002"
    INDEX 01 00:36:66
  TRACK 41 AUDIO
    TITLE "0:"
    INDEX 01 00:37:73
  TRACK 42 AUDIO
    TITLE "17:cjc020_9003"
    INDEX 01 00:38:57
  TRACK 43 AUDIO
    TITLE "0:"
    INDEX 01 00:39:74
  TRACK 44 AUDIO
    TITLE "16:cjc020_9004"
    INDEX 01 00:40:05
  TRACK 45 AUDIO
    TITLE "0:"
    INDEX 01 00:40:73
  TRACK 46 AUDIO
    TITLE "17:cjc020_9005"
    INDEX 01 00:41:61
  TRACK 47 AUDIO
    TITLE "0:"
    INDEX 01 00:43:21
  TRACK 48 AUDIO
    TITLE "16:cjc020_9006"
    INDEX 01 00:43:29
  TRACK 49 AUDIO
    TITLE "0:"
    INDEX 01 00:44:28
  TRACK 50 AUDIO
    TITLE "17:cjc020_9007"
    INDEX 01 00:45:12
  TRACK 51 AUDIO
    TITLE "0:"
    INDEX 01 00:46:74
  TRACK 52 AUDIO
    TITLE "16:cjc020_9008"
    INDEX 01 00:47:05
  TRACK 53 AUDIO
    TITLE "0:"
    INDEX 01 00:48:04
  TRACK 54 AUDIO
    TITLE "17:cjc020_9009"
    INDEX 01 00:48:67
  TRACK 55 AUDIO
    TITLE "0:"
    INDEX 01 00:49:70
  TRACK 56 AUDIO
    TITLE "16:cjc020_9010"
    INDEX 01 00:50:01
  TRACK 57 AUDIO
    TITLE "0:"
    INDEX 01 00:51:05
  TRACK 58 AUDIO
    TITLE "17:cjc020_9011"
    INDEX 01 00:51:65
  TRACK 59 AUDIO
    TITLE "0:"
    INDEX 01 00:54:11
  TRACK 60 AUDIO
    TITLE "16:cjc020_9012"
    INDEX 01 00:54:15
  TRACK 61 AUDIO
    TITLE "0:"
    INDEX 01 00:55:22
  TRACK 62 AUDIO
    TITLE "17:cjc020_9013"
    INDEX 01 00:56:08
  TRACK 63 AUDIO
    TITLE "0:"
    INDEX 01 00:56:71
  TRACK 64 AUDIO
    TITLE "16:cjc020_9014"
    INDEX 01 00:57:03
  TRACK 65 AUDIO
    TITLE "0:"
    INDEX 01 00:58:05
  TRACK 66 AUDIO
    TITLE "17:cjc020_9015"
    INDEX 01 00:58:66
  TRACK 67 AUDIO
    TITLE "0:"
    INDEX 01 01:00:04
  TRACK 68 AUDIO
    TITLE "16:cjc020_9016"
    INDEX 01 01:00:10
  TRACK 69 AUDIO
    TITLE "0:"
    INDEX 01 01:01:50
  TRACK 70 AUDIO
    TITLE "17:cjc020_9017"
    INDEX 01 01:02:34
  TRACK 71 AUDIO
    TITLE "0:"
    INDEX 01 01:03:37
  TRACK 72 AUDIO
    TITLE "16:cjc020_9018"
    INDEX 01 01:03:43
  TRACK 73 AUDIO
    TITLE "0:"
    INDEX 01 01:04:52
  TRACK 74 AUDIO
    TITLE "17:cjc020_9019"
    INDEX 01 01:05:32
  TRACK 75 AUDIO
    TITLE "0:"
    INDEX 01 01:06:53
  TRACK 76 AUDIO
    TITLE "16:cjc020_9020"
    INDEX 01 01:06:59
  TRACK 77 AUDIO
    TITLE "0:"
    INDEX 01 01:07:59
